<?xml version="1.0" standalone="no"?>
<!DOCTYPE svg PUBLIC "-//W3C//DTD SVG 20010904//EN"
 "http://www.w3.org/TR/2001/REC-SVG-20010904/DTD/svg10.dtd">
<svg version="1.0" xmlns="http://www.w3.org/2000/svg"
 width="256.000000pt" height="256.000000pt" viewBox="0 0 256.000000 256.000000"
 preserveAspectRatio="xMidYMid meet">

<g transform="translate(0.000000,256.000000) scale(0.100000,-0.100000)"
fill="#000000" stroke="none">
<path d="M1227 2253 c-78 -40 -54 -123 35 -123 72 0 95 53 46 107 -26 28 -49
33 -81 16z"/>
<path d="M1525 2182 c-48 -30 -93 -88 -101 -129 -9 -47 10 -150 34 -183 29
-40 105 -73 173 -74 58 -1 62 1 95 36 42 46 44 81 10 155 -28 59 -54 77 -101
69 -39 -8 -85 -41 -85 -62 0 -8 17 -25 37 -37 29 -17 34 -23 20 -25 -82 -16
-113 87 -39 130 71 42 130 31 205 -41 94 -89 106 -198 35 -306 -56 -84 -317
-292 -394 -314 -56 -16 -57 -13 -58 226 l-1 218 -29 53 c-65 117 -243 248
-368 271 -139 25 -304 -42 -352 -143 -24 -51 -21 -141 8 -201 48 -104 131
-175 205 -175 72 0 124 45 165 144 43 103 -15 186 -129 186 -38 0 -52 -5 -76
-29 -38 -39 -38 -74 1 -113 30 -29 31 -30 56 -13 31 20 56 6 34 -20 -20 -24
-101 -20 -135 7 -26 20 -27 24 -23 100 3 69 6 82 27 99 61 49 203 51 290 4 88
-48 146 -127 170 -230 13 -59 42 -375 35 -387 -10 -16 -39 -7 -98 32 -93 60
-178 95 -321 131 -255 64 -420 34 -492 -88 -58 -99 -81 -252 -49 -327 8 -19
31 -53 53 -76 95 -107 251 -120 354 -31 51 43 78 100 79 164 0 62 -19 105 -64
145 -108 94 -261 -33 -186 -155 22 -37 58 -44 85 -16 13 13 16 27 11 60 -4 31
-2 43 7 43 40 0 50 -74 17 -128 -37 -60 -123 -77 -185 -36 -30 19 -65 102 -65
151 0 51 43 137 86 169 50 38 113 54 165 43 55 -13 431 -134 482 -156 20 -9
37 -19 37 -23 0 -14 -73 -74 -191 -158 -273 -194 -319 -252 -348 -429 -11 -73
-2 -128 33 -187 52 -88 134 -126 272 -126 73 0 104 13 151 62 66 68 82 167 41
248 -32 61 -66 83 -136 88 -54 4 -62 2 -94 -27 -20 -17 -45 -53 -57 -81 -20
-46 -20 -52 -6 -80 18 -35 38 -47 94 -56 35 -6 46 -3 66 16 14 13 25 33 25 45
0 28 -30 55 -61 55 -23 1 -23 1 -5 15 68 52 126 -41 76 -122 -27 -44 -53 -56
-108 -48 -59 9 -114 37 -142 72 -18 23 -21 37 -17 78 8 83 54 180 115 246 95
103 322 259 356 246 12 -5 15 -54 18 -264 3 -247 4 -260 27 -306 32 -65 115
-153 170 -181 95 -48 253 -65 335 -37 164 57 195 279 57 404 -50 45 -70 50
-170 46 -61 -3 -86 -9 -107 -25 -53 -39 -67 -68 -67 -134 1 -74 19 -105 76
-131 55 -24 92 -24 133 2 63 38 71 85 23 130 -45 42 -99 35 -99 -13 0 -10 -4
-18 -10 -18 -5 0 -10 16 -10 35 0 39 20 55 70 55 66 0 120 -49 120 -108 0 -91
-50 -132 -162 -132 -135 1 -218 70 -246 206 -32 148 -36 440 -7 464 8 7 43
-11 121 -61 60 -38 156 -93 213 -122 121 -59 177 -68 284 -43 95 22 156 56
214 120 125 137 136 276 30 389 -59 63 -151 84 -249 57 -45 -13 -124 -89 -149
-145 -31 -67 -25 -109 21 -159 22 -24 60 -54 84 -66 41 -22 46 -23 82 -9 45
17 99 82 114 139 8 31 8 46 -4 69 -37 70 -141 35 -141 -47 0 -41 -19 -53 -35
-22 -14 26 12 84 51 113 33 24 110 25 145 2 33 -21 56 -77 48 -113 -10 -44
-50 -106 -92 -144 -34 -31 -50 -37 -104 -43 -88 -9 -220 9 -297 40 -134 55
-301 146 -301 164 0 5 60 40 133 77 172 87 307 175 358 233 58 65 109 173 109
232 0 68 -34 168 -81 238 -70 105 -134 139 -279 147 -72 5 -90 3 -115 -14z"/>
<path d="M463 1774 c-54 -42 -39 -104 25 -104 30 0 72 38 72 66 0 25 -32 64
-52 64 -7 0 -28 -12 -45 -26z"/>
<path d="M2057 1732 c-24 -27 -21 -69 8 -97 32 -32 50 -31 86 4 36 36 37 63 3
90 -33 26 -76 27 -97 3z"/>
<path d="M462 848 c-33 -33 10 -118 59 -118 16 0 59 52 59 71 0 44 -86 79
-118 47z"/>
<path d="M2022 807 c-44 -46 -18 -117 42 -117 27 0 86 49 86 72 0 14 -21 52
-34 60 -23 16 -73 8 -94 -15z"/>
<path d="M1213 408 c-30 -34 -35 -58 -18 -84 32 -49 125 -19 125 39 0 28 -39
67 -66 67 -11 0 -30 -10 -41 -22z"/>
</g>
</svg>
